<?xml version="1.0" encoding="utf-8"?>
<!-- Generator: Adobe Illustrator 24.0.3, SVG Export Plug-In . SVG Version: 6.00 Build 0)  -->
<svg version="1.1" id="Layer_1" xmlns="http://www.w3.org/2000/svg" xmlns:xlink="http://www.w3.org/1999/xlink" x="0px" y="0px"
	 viewBox="0 0 60 60" style="enable-background:new 0 0 60 60;" xml:space="preserve">
<style type="text/css">
	.st0{fill:#FFFFFF;}
</style>
<g>
	<path class="st0" d="M29.69,1c0,0-0.01,0-0.01,0L29.6,1C17.55,1.01,7.74,10.86,7.74,22.95c0,0.41,0,0.86,0.04,1.31
		c0.15,2.66,0.79,5.24,1.91,7.72l1.18,2.26l17.25,23.49c0.36,0.49,0.93,0.78,1.53,0.78h0c0.6,0,1.18-0.29,1.53-0.78l17.16-23.34
		l1.32-2.43l0.03-0.07c1.09-2.42,1.71-4.99,1.87-7.7c0-0.19,0.01-0.38,0.02-0.58c0.01-0.23,0.02-0.46,0.02-0.7
		C51.61,10.83,41.78,1,29.69,1z M49.56,23.52c-0.01,0.22-0.02,0.45-0.02,0.61c-0.14,2.39-0.71,4.71-1.68,6.89l-1.19,2.21
		L29.66,56.37L12.64,33.22l-1.12-2.13c-0.99-2.2-1.57-4.54-1.71-6.98c-0.03-0.39-0.03-0.78-0.03-1.16c0-10.97,8.9-19.9,19.83-19.91
		l0.07,0c0,0,0.01,0,0.01,0c10.96,0,19.88,8.91,19.89,19.87C49.58,23.12,49.57,23.32,49.56,23.52z"/>
	<path class="st0" d="M29.54,11.46c-5.38,0-9.76,4.38-9.76,9.76c0,5.38,4.38,9.76,9.76,9.76c5.38,0,9.76-4.38,9.76-9.76
		C39.3,15.84,34.92,11.46,29.54,11.46z M29.54,28.95c-4.26,0-7.72-3.46-7.72-7.72c0-4.26,3.46-7.72,7.72-7.72
		c4.26,0,7.72,3.46,7.72,7.72C37.26,25.48,33.8,28.95,29.54,28.95z"/>
</g>
</svg>
