<?xml version="1.0" encoding="utf-8"?>
<!-- Generator: Adobe Illustrator 24.0.3, SVG Export Plug-In . SVG Version: 6.00 Build 0)  -->
<svg version="1.1" id="Layer_1" xmlns="http://www.w3.org/2000/svg" xmlns:xlink="http://www.w3.org/1999/xlink" x="0px" y="0px"
	 viewBox="0 0 60 60" style="enable-background:new 0 0 60 60;" xml:space="preserve">
<style type="text/css">
	.st0{fill:#FFFFFF;stroke:#FFFFFF;stroke-miterlimit:10;}
</style>
<g transform="translate(0,-952.36215)">
	<path class="st0" d="M24.18,953.31c-0.19,0.02-0.36,0.11-0.49,0.25L1.05,977.25c-0.31,0.33-0.3,0.84,0.02,1.15l32.52,31.12
		l-9.82,0.08c-0.2-0.01-0.39,0.08-0.51,0.23c-0.24,0.27-0.21,0.69,0.06,0.93c0.13,0.11,0.3,0.17,0.47,0.16l22.37-0.14
		c0.37-0.01,0.66-0.31,0.66-0.68c-0.01-0.37-0.31-0.66-0.68-0.66l0,0l-9.69,0.06l21.86-22.82c0.31-0.33,0.3-0.85-0.03-1.17
		c0,0,0,0-0.01-0.01l-33.4-31.96c-0.02-0.02-0.04-0.04-0.06-0.06C24.63,953.34,24.41,953.28,24.18,953.31L24.18,953.31z
		 M34.98,1008.56l-0.51-0.47l-31.2-29.86l8.91,0.29c0.32,0.01,0.58-0.26,0.56-0.57l0,0c-0.02-0.28-0.24-0.51-0.52-0.52l-8.78-0.31
		l20.23-21.14l0,0L29,981.55c0.07,0.33,0.34,0.59,0.68,0.64l26.3,4.51l-20.75,21.69L34.98,1008.56z M25.42,956.36l29.82,28.55
		l-24.76-4.24L25.42,956.36z"/>
</g>
</svg>
