<?xml version="1.0" encoding="utf-8"?>
<!-- Generator: Adobe Illustrator 24.0.1, SVG Export Plug-In . SVG Version: 6.00 Build 0)  -->
<svg version="1.1" id="Layer_1" xmlns="http://www.w3.org/2000/svg" xmlns:xlink="http://www.w3.org/1999/xlink" x="0px" y="0px"
	 viewBox="0 0 70 70" style="enable-background:new 0 0 70 70;" xml:space="preserve">
<style type="text/css">
	.st0{fill:#2DE063;}
</style>
<g>
	<path class="st0" d="M40.61,17.36c1.92,0.97,2.95,2,3.92,3.92c0.34,0.66,1.01,1.08,1.75,1.08c0.75,0,1.42-0.41,1.75-1.08
		c0.97-1.92,1.99-2.95,3.92-3.92c0.66-0.33,1.08-1.01,1.08-1.75s-0.41-1.42-1.08-1.75c-1.92-0.97-2.95-2-3.92-3.92
		c-0.34-0.66-1.01-1.08-1.75-1.08c-0.75,0-1.42,0.41-1.75,1.08c-0.97,1.92-1.99,2.95-3.92,3.92c-0.66,0.33-1.08,1.01-1.08,1.75
		S39.95,17.02,40.61,17.36z M46.3,10.81c1.15,2.28,2.49,3.62,4.78,4.8c0,0,0,0-0.01,0c0,0,0,0,0,0c-2.29,1.15-3.62,2.49-4.81,4.78
		c-1.15-2.28-2.49-3.62-4.78-4.81C43.77,14.44,45.11,13.1,46.3,10.81z"/>
	<path class="st0" d="M56.64,9.33c1.2,0.61,1.81,1.21,2.41,2.41c0.28,0.55,0.83,0.89,1.45,0.89c0.62,0,1.17-0.34,1.45-0.89
		c0.6-1.2,1.21-1.81,2.41-2.41c0,0,0,0,0,0c0.55-0.28,0.89-0.83,0.89-1.45c0-0.62-0.34-1.17-0.89-1.45
		c-1.2-0.61-1.81-1.21-2.41-2.41c-0.28-0.55-0.83-0.89-1.45-0.89c-0.62,0-1.17,0.34-1.45,0.89c-0.6,1.2-1.21,1.81-2.41,2.41
		c-0.55,0.28-0.89,0.83-0.89,1.45C55.75,8.5,56.09,9.06,56.64,9.33z M60.49,5.44c0.63,1.08,1.37,1.82,2.45,2.45
		c-1.08,0.63-1.82,1.37-2.44,2.45c-0.63-1.08-1.37-1.82-2.45-2.45C59.13,7.26,59.87,6.52,60.49,5.44z"/>
	<path class="st0" d="M69.96,42.01c-0.24-4.17-2.46-7.42-6.08-8.93c-0.61-0.25-1.24-0.44-1.88-0.59c1.82-1.36,3.01-3.52,3.01-5.96
		c0-1.11-0.9-2.01-2.01-2.01h-6.08c-3.03,0-5.63,1.82-6.79,4.42c-0.41-0.71-0.91-1.34-1.53-1.84c-0.42-0.34-1.03-0.27-1.37,0.15
		c-0.33,0.42-0.27,1.03,0.15,1.37c1.65,1.31,2.28,4.39,2.48,6.41c-0.04-0.03-0.08-0.05-0.11-0.08c-3.12-2.76-7.86-3.51-11.81-1.87
		c-3.62,1.51-5.84,4.76-6.08,8.94c-0.02,0.31-0.03,0.61-0.03,0.91c0,1.45,0.2,2.86,0.53,4.21c-0.09-0.01-0.18-0.03-0.27-0.03h-9.22
		V22.9h9.22c1.51,0,2.74-1.23,2.74-2.74v-2.78c0-1.51-1.23-2.74-2.74-2.74h-0.67V7.36c0-1.51-1.23-2.74-2.74-2.74h-5.8V2.74
		c0-1.51-1.23-2.74-2.74-2.74h-5.35c-1.51,0-2.74,1.23-2.74,2.74v1.88h-5.8c-1.51,0-2.74,1.23-2.74,2.74v7.27H2.82
		c-1.51,0-2.74,1.23-2.74,2.74v2.78c0,1.51,1.23,2.74,2.74,2.74h9.22V47.1H2.82c-1.51,0-2.74,1.23-2.74,2.74v2.78
		c0,1.51,1.23,2.74,2.74,2.74H3.5v7.27c0,1.51,1.23,2.74,2.74,2.74h5.8v1.88c0,1.51,1.23,2.74,2.74,2.74h5.35
		c1.51,0,2.74-1.23,2.74-2.74v-1.88h5.8c1.51,0,2.74-1.23,2.74-2.74v-7.27h0.67c1.49,0,2.7-1.19,2.74-2.67
		c3.14,4.63,8.46,7.68,14.49,7.68c0.55,0,1.09-0.12,1.59-0.36c0.5,0.23,1.05,0.35,1.62,0.36c9.63,0,17.46-7.83,17.46-17.45
		C69.98,42.62,69.97,42.32,69.96,42.01z M13.98,2.74c0-0.44,0.36-0.8,0.8-0.8h5.35c0.44,0,0.8,0.36,0.8,0.8v1.88h-6.95V2.74z
		 M5.44,7.36c0-0.44,0.36-0.8,0.8-0.8h6.77h8.9h6.77c0.44,0,0.8,0.36,0.8,0.8v7.27H5.44V7.36z M2.02,20.15v-2.78
		c0-0.44,0.36-0.8,0.8-0.8h1.65h25.98h1.65c0.44,0,0.8,0.36,0.8,0.8v2.78c0,0.44-0.36,0.8-0.8,0.8H2.82
		C2.38,20.95,2.02,20.59,2.02,20.15z M13.98,22.96h6.95V47.1h-6.95V22.96z M20.93,67.26c0,0.44-0.36,0.8-0.8,0.8h-5.35
		c-0.44,0-0.8-0.36-0.8-0.8v-1.88h6.95V67.26z M29.48,62.64c0,0.44-0.36,0.8-0.8,0.8h-6.77h-8.9H6.24c-0.44,0-0.8-0.36-0.8-0.8
		v-7.27h24.03V62.64z M32.09,53.42h-1.65H4.47H2.82c-0.44,0-0.8-0.36-0.8-0.8v-2.78c0-0.44,0.36-0.8,0.8-0.8h10.19h8.9h10.19
		c0.44,0,0.8,0.36,0.8,0.8v2.78C32.89,53.06,32.53,53.42,32.09,53.42 M56.92,26.47l6.14,0.06c0,3.03-2.46,5.49-5.49,5.49l-6.14-0.06
		C51.43,28.93,53.89,26.47,56.92,26.47z M53.38,33.97c-0.46,0.29-0.9,0.62-1.32,0.98c-0.08,0.07-0.16,0.13-0.25,0.18
		c-0.03-0.34-0.07-0.73-0.13-1.17H53.38z M52.5,58.43c-0.37,0-0.73-0.11-1.04-0.33c-0.17-0.11-0.36-0.17-0.55-0.17
		c-0.19,0-0.39,0.06-0.55,0.17c-0.31,0.21-0.67,0.33-1.07,0.33c-8.55,0-15.51-6.96-15.51-15.5c0-0.27,0.01-0.54,0.02-0.8
		c0.27-4.65,3.18-6.54,4.89-7.25c3.22-1.34,7.23-0.71,9.77,1.53c0.69,0.61,1.54,0.91,2.4,0.92c0.01,0,0.03,0.01,0.04,0.01h0
		c0.01,0,0.03-0.01,0.04-0.01c0.86-0.01,1.72-0.31,2.4-0.92c2.54-2.24,6.55-2.87,9.77-1.53c1.71,0.71,4.62,2.6,4.89,7.25
		c0,0,0,0,0,0c0.02,0.27,0.02,0.53,0.02,0.8C68.04,51.47,61.08,58.43,52.5,58.43z"/>
	<path class="st0" d="M64.08,39.16c-0.32-0.43-0.92-0.53-1.36-0.22c-0.43,0.32-0.53,0.92-0.21,1.36c0.38,0.53,0.6,1.24,0.65,2.11
		c0.01,0.18,0.02,0.35,0.02,0.52c0,1.93-0.52,3.82-1.51,5.46c-0.28,0.46-0.13,1.06,0.33,1.33c0.16,0.09,0.33,0.14,0.5,0.14
		c0.33,0,0.65-0.17,0.83-0.47c1.17-1.95,1.79-4.18,1.79-6.46c0-0.21-0.01-0.42-0.02-0.63C65.03,41.04,64.69,39.99,64.08,39.16z"/>
</g>
</svg>
