<?xml version="1.0" encoding="utf-8"?>
<!-- Generator: Adobe Illustrator 24.0.3, SVG Export Plug-In . SVG Version: 6.00 Build 0)  -->
<svg version="1.1" id="Layer_1" xmlns="http://www.w3.org/2000/svg" xmlns:xlink="http://www.w3.org/1999/xlink" x="0px" y="0px"
	 viewBox="0 0 60 60" style="enable-background:new 0 0 60 60;" xml:space="preserve">
<style type="text/css">
	.st0{fill:#FFFFFF;}
</style>
<g>
	<path class="st0" d="M32.96,21.84c1.33,0.67,2.04,1.38,2.71,2.71c0.23,0.46,0.7,0.74,1.21,0.74s0.98-0.29,1.21-0.75
		c0.67-1.33,1.38-2.04,2.71-2.71c0.46-0.23,0.74-0.7,0.74-1.21c0-0.52-0.29-0.98-0.74-1.21c-1.33-0.67-2.04-1.38-2.71-2.71
		c-0.23-0.46-0.7-0.74-1.21-0.74s-0.98,0.29-1.21,0.75c-0.67,1.33-1.38,2.04-2.71,2.71c-0.46,0.23-0.75,0.7-0.75,1.21
		C32.21,21.15,32.5,21.61,32.96,21.84z M36.89,17.32c0.8,1.58,1.72,2.51,3.31,3.32c0,0,0,0-0.01,0c0,0,0,0,0,0
		c-1.58,0.8-2.51,1.73-3.33,3.31c-0.8-1.58-1.72-2.51-3.31-3.33C35.15,19.82,36.07,18.9,36.89,17.32z"/>
</g>
<g>
	<path class="st0" d="M47.96,25.93c1.55,0.79,2.38,1.61,3.17,3.17c0.27,0.54,0.81,0.87,1.42,0.87s1.15-0.33,1.42-0.87
		c0.78-1.55,1.61-2.38,3.17-3.17c0.54-0.27,0.87-0.81,0.87-1.42s-0.33-1.15-0.87-1.42c-1.56-0.79-2.39-1.62-3.17-3.17
		c-0.27-0.54-0.81-0.87-1.42-0.87s-1.15,0.33-1.42,0.87c-0.78,1.55-1.61,2.38-3.17,3.17c-0.54,0.27-0.87,0.81-0.87,1.42
		S47.42,25.66,47.96,25.93z M52.56,20.63c0.93,1.85,2.01,2.93,3.87,3.89c0,0,0,0-0.01,0c0,0,0,0,0,0c-1.85,0.93-2.93,2.02-3.89,3.87
		c-0.93-1.85-2.02-2.93-3.86-3.89C50.51,23.56,51.6,22.48,52.56,20.63z"/>
</g>
<path class="st0" d="M45.41,51.95c0.63-0.71,1.26-1.34,1.97-2.05c0.47-0.47,0.94-0.94,1.42-1.42c2.2-2.28,2.2-5.19,0-7.39
	l-6.14-6.14c-1.02-1.1-2.28-1.65-3.62-1.65c-1.34,0-2.6,0.55-3.62,1.65l-3.7,3.62c-0.31-0.16-0.71-0.39-1.02-0.55
	c-0.39-0.24-0.79-0.39-1.1-0.63c-3.3-2.12-6.37-4.88-9.28-8.42c-1.49-1.89-2.44-3.38-3.15-5.03c0.94-0.87,1.89-1.81,2.75-2.67
	c0.31-0.31,0.63-0.63,0.94-0.94c1.1-1.1,1.73-2.36,1.73-3.7s-0.55-2.6-1.73-3.7L17.8,9.87c-0.39-0.39-0.71-0.71-1.02-1.02
	c-0.71-0.71-1.42-1.42-2.05-2.05c-1.02-1.02-2.28-1.57-3.62-1.57C9.78,5.23,8.6,5.78,7.5,6.8l-3.85,3.85
	c-1.42,1.42-2.2,3.07-2.36,5.03c-0.24,2.44,0.24,5.03,1.42,8.18c1.81,4.88,4.48,9.36,8.5,14.24c4.88,5.82,10.78,10.46,17.46,13.69
	c2.52,1.18,5.98,2.67,9.75,2.91c0.24,0,0.47,0,0.71,0C41.64,54.63,43.68,53.76,45.41,51.95L45.41,51.95z M43.52,50.3
	c-1.18,1.26-2.6,1.89-4.41,1.89c-0.16,0-0.39,0-0.55,0c-3.38-0.24-6.53-1.49-8.81-2.67c-6.37-3.07-11.96-7.47-16.6-12.98
	c-3.85-4.64-6.45-8.97-8.18-13.53c-1.02-2.75-1.42-5.03-1.26-7.16c0.16-1.34,0.63-2.52,1.65-3.46l3.78-3.78
	c0.63-0.55,1.26-0.87,1.89-0.87s1.26,0.31,1.89,0.87c0.71,0.63,1.34,1.34,2.05,2.05c0.31,0.39,0.71,0.71,1.1,1.1l3.07,3.07
	c0.63,0.63,0.94,1.26,0.94,1.89c0,0.63-0.31,1.26-0.94,1.89c-0.31,0.31-0.63,0.63-0.94,0.94c-0.94,0.94-1.81,1.89-2.83,2.75
	c0,0,0,0-0.08,0.08c-0.87,0.87-0.71,1.65-0.55,2.28v0.08c0.79,1.89,1.89,3.7,3.62,5.82c3.07,3.78,6.29,6.77,9.91,8.97
	c0.47,0.31,0.94,0.55,1.34,0.71c0.39,0.24,0.79,0.39,1.1,0.63l0.08,0.08c0.31,0.16,0.63,0.24,1.02,0.24c0.79,0,1.34-0.55,1.49-0.71
	l3.85-3.85c0.63-0.63,1.26-0.94,1.89-0.94c0.79,0,1.42,0.47,1.81,0.94l6.21,6.21c1.26,1.26,1.26,2.6,0,3.85
	c-0.47,0.47-0.87,0.87-1.34,1.34C44.94,48.73,44.15,49.52,43.52,50.3z"/>
</svg>
