<?xml version="1.0" encoding="utf-8"?>
<!-- Generator: Adobe Illustrator 24.0.1, SVG Export Plug-In . SVG Version: 6.00 Build 0)  -->
<svg version="1.1" id="Layer_1" xmlns="http://www.w3.org/2000/svg" xmlns:xlink="http://www.w3.org/1999/xlink" x="0px" y="0px"
	 viewBox="0 0 70 70" style="enable-background:new 0 0 70 70;" xml:space="preserve">
<style type="text/css">
	.st0{fill:#2DE063;}
</style>
<path class="st0" d="M58.12,8.92c1.78,0.9,2.73,1.85,3.62,3.62c0.31,0.62,0.94,1.01,1.64,1.01h0c0.7,0,1.33-0.39,1.64-1.01
	c0.9-1.78,1.85-2.73,3.63-3.63c0,0,0,0,0,0c0.62-0.31,1.01-0.94,1.01-1.64c0-0.7-0.39-1.33-1.01-1.64c-1.78-0.9-2.73-1.85-3.62-3.62
	C64.72,1.39,64.09,1,63.39,1h0c-0.7,0-1.33,0.39-1.64,1.01c-0.9,1.78-1.85,2.73-3.62,3.63c-0.62,0.31-1.01,0.94-1.01,1.64
	C57.11,7.98,57.5,8.6,58.12,8.92z M63.39,2.84c1.07,2.12,2.32,3.37,4.44,4.43l0,0c-2.12,1.07-3.37,2.32-4.43,4.44
	c-1.07-2.12-2.32-3.37-4.44-4.43C61.08,6.21,62.32,4.96,63.39,2.84z"/>
<g>
	<g>
		<path class="st0" d="M61.78,37.05c0.77-2.9,1.08-5.85,0.9-8.78c-0.47-7.55-4.77-14.11-11.23-17.1
			c-10.19-4.72-17.16,2.7-19.92,6.55c-2.75-3.85-9.7-11.28-19.91-6.55C5.17,14.16,0.87,20.71,0.4,28.27
			c-1.09,17.57,14.58,30.64,28.36,40.07c0.85,0.57,1.82,0.86,2.78,0.86c0.97,0,1.94-0.29,2.78-0.86c3.15-2.15,5.76-4.05,8.17-5.94
			c2.46,1.44,5.25,2.21,8.12,2.21c8.87,0,16.09-7.19,16.09-16.03C66.71,44.22,64.91,40.06,61.78,37.05z M33.28,66.81
			c-1.06,0.72-2.43,0.72-3.49,0C16.42,57.66,1.21,45.03,2.24,28.38C2.66,21.5,6.56,15.55,12.4,12.84c2.02-0.94,3.9-1.32,5.62-1.32
			c6.84,0,11.32,6.09,12.73,8.34c0.17,0.27,0.46,0.43,0.78,0.43h0c0.32,0,0.61-0.16,0.78-0.43c2.28-3.61,8.64-11.52,18.36-7.02
			c5.84,2.71,9.74,8.66,10.16,15.54c0.15,2.44-0.06,4.91-0.61,7.33c-0.07-0.05-0.15-0.1-0.22-0.15c-0.3-0.22-0.61-0.42-0.92-0.61
			c-0.12-0.07-0.24-0.15-0.37-0.22c-0.42-0.24-0.85-0.47-1.29-0.68c-2.13-1-4.42-1.51-6.82-1.51c-5,0-9.63,2.26-12.71,6.2
			c-2.21,2.83-3.38,6.22-3.38,9.83c0,1.92,0.33,3.78,0.99,5.54c0.14,0.38,0.3,0.76,0.47,1.13c0.06,0.12,0.12,0.24,0.18,0.36
			c0.12,0.24,0.24,0.49,0.38,0.73c0.08,0.14,0.16,0.28,0.25,0.41c0.13,0.21,0.26,0.42,0.39,0.63c0.09,0.14,0.19,0.28,0.29,0.42
			c0.14,0.2,0.28,0.39,0.43,0.58c0.11,0.14,0.21,0.27,0.32,0.4c0.15,0.19,0.31,0.37,0.48,0.55c0.11,0.12,0.22,0.25,0.34,0.37
			c0.18,0.18,0.36,0.36,0.55,0.54c0.11,0.1,0.22,0.21,0.33,0.31c0.25,0.23,0.52,0.44,0.78,0.65c0.05,0.04,0.1,0.09,0.16,0.13
			c0,0,0,0,0,0C38.63,63.06,36.19,64.83,33.28,66.81z M50.62,62.75c-2.75,0-5.41-0.78-7.7-2.25c-2.59-1.65-4.6-4.15-5.67-7.03
			c-0.58-1.55-0.87-3.2-0.87-4.89c0-3.19,1.03-6.19,2.99-8.69c2.73-3.49,6.84-5.49,11.26-5.49c2.13,0,4.16,0.45,6.04,1.33
			c0.46,0.21,0.9,0.46,1.33,0.72c0.77,0.46,1.5,0.99,2.17,1.59l0,0c2.99,2.69,4.71,6.53,4.71,10.54
			C64.86,56.39,58.47,62.75,50.62,62.75z"/>
		<path class="st0" d="M57.03,45.72h-3.57v-3.55c0-1.57-1.28-2.84-2.85-2.84c-1.57,0-2.85,1.27-2.85,2.84v3.55H44.2
			c-1.57,0-2.85,1.27-2.85,2.84s1.28,2.84,2.85,2.84h3.57v3.55c0,1.57,1.28,2.84,2.85,2.84c1.57,0,2.85-1.27,2.85-2.84V51.4h3.57
			c1.57,0,2.85-1.27,2.85-2.84S58.6,45.72,57.03,45.72z M57.03,49.56h-4.49c-0.51,0-0.92,0.41-0.92,0.92v4.47c0,0.55-0.45,1-1,1
			s-1-0.45-1-1v-4.47c0-0.51-0.41-0.92-0.92-0.92H44.2c-0.55,0-1-0.45-1-1s0.45-1,1-1h4.49c0.51,0,0.92-0.41,0.92-0.92v-4.47
			c0-0.55,0.45-1,1-1s1,0.45,1,1v4.47c0,0.51,0.41,0.92,0.92,0.92h4.49c0.55,0,1,0.45,1,1S57.59,49.56,57.03,49.56z"/>
	</g>
</g>
</svg>
